<svg width="206" height="204" viewBox="0 0 206 204" fill="none" xmlns="http://www.w3.org/2000/svg">
<path d="M18.0909 174H3.18182L36.6818 80.9091H52.9091L86.4091 174H71.5L45.1818 97.8182H44.4545L18.0909 174ZM20.5909 137.545H68.9545V149.364H20.5909V137.545ZM149.875 105.364C149.39 101.061 147.39 97.7273 143.875 95.3636C140.36 92.9697 135.936 91.7727 130.602 91.7727C126.784 91.7727 123.481 92.3788 120.693 93.5909C117.905 94.7727 115.739 96.4091 114.193 98.5C112.678 100.561 111.92 102.909 111.92 105.545C111.92 107.758 112.436 109.667 113.466 111.273C114.527 112.879 115.905 114.227 117.602 115.318C119.33 116.379 121.178 117.273 123.148 118C125.117 118.697 127.011 119.273 128.83 119.727L137.92 122.091C140.89 122.818 143.936 123.803 147.057 125.045C150.178 126.288 153.072 127.924 155.739 129.955C158.405 131.985 160.557 134.5 162.193 137.5C163.86 140.5 164.693 144.091 164.693 148.273C164.693 153.545 163.33 158.227 160.602 162.318C157.905 166.409 153.981 169.636 148.83 172C143.708 174.364 137.511 175.545 130.239 175.545C123.269 175.545 117.239 174.439 112.148 172.227C107.057 170.015 103.072 166.879 100.193 162.818C97.3144 158.727 95.7235 153.879 95.4205 148.273H109.511C109.784 151.636 110.875 154.439 112.784 156.682C114.723 158.894 117.193 160.545 120.193 161.636C123.223 162.697 126.542 163.227 130.148 163.227C134.117 163.227 137.648 162.606 140.739 161.364C143.86 160.091 146.314 158.333 148.102 156.091C149.89 153.818 150.784 151.167 150.784 148.136C150.784 145.379 149.996 143.121 148.42 141.364C146.875 139.606 144.769 138.152 142.102 137C139.466 135.848 136.481 134.833 133.148 133.955L122.148 130.955C114.693 128.924 108.784 125.939 104.42 122C100.087 118.061 97.9205 112.848 97.9205 106.364C97.9205 101 99.375 96.3182 102.284 92.3182C105.193 88.3182 109.133 85.2121 114.102 83C119.072 80.7576 124.678 79.6364 130.92 79.6364C137.223 79.6364 142.784 80.7424 147.602 82.9545C152.451 85.1667 156.269 88.2121 159.057 92.0909C161.845 95.9394 163.299 100.364 163.42 105.364H149.875Z" fill="white"/>
<path d="M188.01 138.969C185.339 138.969 183.049 138.029 181.141 136.151C179.232 134.272 178.293 131.982 178.322 129.281C178.293 126.639 179.232 124.379 181.141 122.5C183.049 120.621 185.339 119.682 188.01 119.682C190.593 119.682 192.839 120.621 194.747 122.5C196.685 124.379 197.668 126.639 197.697 129.281C197.668 131.072 197.198 132.701 196.288 134.169C195.408 135.637 194.233 136.811 192.766 137.692C191.327 138.543 189.742 138.969 188.01 138.969Z" fill="white"/>
</svg>
